<mxfile host="Electron" modified="2024-02-14T18:23:17.556Z" agent="Mozilla/5.0 (Windows NT 10.0; Win64; x64) AppleWebKit/537.36 (KHTML, like Gecko) draw.io/22.1.16 Chrome/120.0.6099.109 Electron/28.1.0 Safari/537.36" etag="ub4YPzjjR-Yk0R5k_c37" version="22.1.16" type="device">
  <diagram name="Page-1" id="xrYjccaUhRdzpyjmgupA">
    <mxGraphModel dx="1084" dy="951" grid="1" gridSize="10" guides="1" tooltips="1" connect="1" arrows="1" fold="1" page="1" pageScale="1" pageWidth="850" pageHeight="1100" math="0" shadow="0">
      <root>
        <mxCell id="0" />
        <mxCell id="1" parent="0" />
        <mxCell id="EV-cBASxTsK1YqbwlIDn-5" value="&amp;nbsp;Upload&amp;nbsp;" style="edgeStyle=orthogonalEdgeStyle;rounded=0;orthogonalLoop=1;jettySize=auto;html=1;" edge="1" parent="1" source="EV-cBASxTsK1YqbwlIDn-1" target="EV-cBASxTsK1YqbwlIDn-2">
          <mxGeometry relative="1" as="geometry" />
        </mxCell>
        <mxCell id="EV-cBASxTsK1YqbwlIDn-1" value="Template" style="sketch=0;outlineConnect=0;fontColor=#232F3E;gradientColor=none;fillColor=#E7157B;strokeColor=none;dashed=0;verticalLabelPosition=bottom;verticalAlign=top;align=center;html=1;fontSize=12;fontStyle=0;aspect=fixed;pointerEvents=1;shape=mxgraph.aws4.template;" vertex="1" parent="1">
          <mxGeometry x="230" y="400" width="65" height="78" as="geometry" />
        </mxCell>
        <mxCell id="EV-cBASxTsK1YqbwlIDn-2" value="Amazon S3 Bucket" style="sketch=0;points=[[0,0,0],[0.25,0,0],[0.5,0,0],[0.75,0,0],[1,0,0],[0,1,0],[0.25,1,0],[0.5,1,0],[0.75,1,0],[1,1,0],[0,0.25,0],[0,0.5,0],[0,0.75,0],[1,0.25,0],[1,0.5,0],[1,0.75,0]];outlineConnect=0;fontColor=#232F3E;fillColor=#7AA116;strokeColor=#ffffff;dashed=0;verticalLabelPosition=bottom;verticalAlign=top;align=center;html=1;fontSize=12;fontStyle=0;aspect=fixed;shape=mxgraph.aws4.resourceIcon;resIcon=mxgraph.aws4.s3;" vertex="1" parent="1">
          <mxGeometry x="430" y="400" width="78" height="78" as="geometry" />
        </mxCell>
        <mxCell id="EV-cBASxTsK1YqbwlIDn-7" value="&amp;nbsp;Create&amp;nbsp;" style="edgeStyle=orthogonalEdgeStyle;rounded=0;orthogonalLoop=1;jettySize=auto;html=1;" edge="1" parent="1" source="EV-cBASxTsK1YqbwlIDn-3" target="EV-cBASxTsK1YqbwlIDn-4">
          <mxGeometry relative="1" as="geometry" />
        </mxCell>
        <mxCell id="EV-cBASxTsK1YqbwlIDn-3" value="AWS CloudFormation" style="sketch=0;points=[[0,0,0],[0.25,0,0],[0.5,0,0],[0.75,0,0],[1,0,0],[0,1,0],[0.25,1,0],[0.5,1,0],[0.75,1,0],[1,1,0],[0,0.25,0],[0,0.5,0],[0,0.75,0],[1,0.25,0],[1,0.5,0],[1,0.75,0]];points=[[0,0,0],[0.25,0,0],[0.5,0,0],[0.75,0,0],[1,0,0],[0,1,0],[0.25,1,0],[0.5,1,0],[0.75,1,0],[1,1,0],[0,0.25,0],[0,0.5,0],[0,0.75,0],[1,0.25,0],[1,0.5,0],[1,0.75,0]];outlineConnect=0;fontColor=#232F3E;fillColor=#E7157B;strokeColor=#ffffff;dashed=0;verticalLabelPosition=bottom;verticalAlign=top;align=center;html=1;fontSize=12;fontStyle=0;aspect=fixed;shape=mxgraph.aws4.resourceIcon;resIcon=mxgraph.aws4.cloudformation;" vertex="1" parent="1">
          <mxGeometry x="640" y="400" width="78" height="78" as="geometry" />
        </mxCell>
        <mxCell id="EV-cBASxTsK1YqbwlIDn-9" value="&amp;nbsp;Create&amp;nbsp;" style="edgeStyle=orthogonalEdgeStyle;rounded=0;orthogonalLoop=1;jettySize=auto;html=1;" edge="1" parent="1" source="EV-cBASxTsK1YqbwlIDn-4" target="EV-cBASxTsK1YqbwlIDn-8">
          <mxGeometry relative="1" as="geometry" />
        </mxCell>
        <mxCell id="EV-cBASxTsK1YqbwlIDn-4" value="Stack" style="sketch=0;outlineConnect=0;fontColor=#232F3E;gradientColor=none;fillColor=#E7157B;strokeColor=none;dashed=0;verticalLabelPosition=bottom;verticalAlign=top;align=center;html=1;fontSize=12;fontStyle=0;aspect=fixed;pointerEvents=1;shape=mxgraph.aws4.stack;" vertex="1" parent="1">
          <mxGeometry x="850" y="401" width="78" height="76" as="geometry" />
        </mxCell>
        <mxCell id="EV-cBASxTsK1YqbwlIDn-6" value="&amp;nbsp;Reference&amp;nbsp;" style="edgeStyle=orthogonalEdgeStyle;rounded=0;orthogonalLoop=1;jettySize=auto;html=1;entryX=1;entryY=0.5;entryDx=0;entryDy=0;entryPerimeter=0;" edge="1" parent="1" source="EV-cBASxTsK1YqbwlIDn-3" target="EV-cBASxTsK1YqbwlIDn-2">
          <mxGeometry relative="1" as="geometry" />
        </mxCell>
        <mxCell id="EV-cBASxTsK1YqbwlIDn-8" value="AWS Resources" style="outlineConnect=0;dashed=0;verticalLabelPosition=bottom;verticalAlign=top;align=center;html=1;shape=mxgraph.aws3.cloud_2;fillColor=#F58534;gradientColor=none;" vertex="1" parent="1">
          <mxGeometry x="1060" y="401.5" width="75" height="75" as="geometry" />
        </mxCell>
      </root>
    </mxGraphModel>
  </diagram>
</mxfile>
